<svg width="26" height="24" viewBox="0 0 26 24" fill="none" xmlns="http://www.w3.org/2000/svg">
<path d="M25 2.94118L10.3333 2.94118M25 21.0588L10.3333 21.0588M25 12L10.3333 12M5 2.94118C5 4.01326 4.10457 4.88235 3 4.88235C1.89543 4.88235 1 4.01326 1 2.94118C1 1.86909 1.89543 1 3 1C4.10457 1 5 1.86909 5 2.94118ZM5 21.0588C5 22.1309 4.10457 23 3 23C1.89543 23 1 22.1309 1 21.0588C1 19.9867 1.89543 19.1176 3 19.1176C4.10457 19.1176 5 19.9867 5 21.0588ZM5 12C5 13.0721 4.10457 13.9412 3 13.9412C1.89543 13.9412 1 13.0721 1 12C1 10.9279 1.89543 10.0588 3 10.0588C4.10457 10.0588 5 10.9279 5 12Z" stroke="#222222" stroke-width="2" stroke-linecap="round" stroke-linejoin="round"/>
</svg>
