<svg width="428" height="99" viewBox="0 0 428 99" fill="none" xmlns="http://www.w3.org/2000/svg">
<mask id="path-1-inside-1_351_1040" fill="white">
<path d="M0 0H428V99H0V0Z"/>
</mask>
<path d="M0 0H428V99H0V0Z" fill="white"/>
<path d="M0 1H428V-1H0V1Z" fill="#DDDDDD" mask="url(#path-1-inside-1_351_1040)"/>
<path d="M50 18V28M45 23H55M44.75 34.25H55.25C57.3502 34.25 58.4003 34.25 59.2025 33.8413C59.9081 33.4817 60.4817 32.9081 60.8413 32.2025C61.25 31.4003 61.25 30.3502 61.25 28.25V17.75C61.25 15.6498 61.25 14.5997 60.8413 13.7975C60.4817 13.0919 59.9081 12.5183 59.2025 12.1587C58.4003 11.75 57.3502 11.75 55.25 11.75H44.75C42.6498 11.75 41.5997 11.75 40.7975 12.1587C40.0919 12.5183 39.5183 13.0919 39.1587 13.7975C38.75 14.5997 38.75 15.6498 38.75 17.75V28.25C38.75 30.3502 38.75 31.4003 39.1587 32.2025C39.5183 32.9081 40.0919 33.4817 40.7975 33.8413C41.5997 34.25 42.6498 34.25 44.75 34.25Z" stroke="#717171" stroke-width="1.5" stroke-linecap="round" stroke-linejoin="round"/>
<path d="M37.5618 49.07C37.5618 49.65 37.3618 50.1333 36.9618 50.52C36.5685 50.9 35.9652 51.09 35.1518 51.09H33.8118V54H32.9018V47.03H35.1518C35.9385 47.03 36.5352 47.22 36.9418 47.6C37.3552 47.98 37.5618 48.47 37.5618 49.07ZM35.1518 50.34C35.6585 50.34 36.0318 50.23 36.2718 50.01C36.5118 49.79 36.6318 49.4767 36.6318 49.07C36.6318 48.21 36.1385 47.78 35.1518 47.78H33.8118V50.34H35.1518ZM40.8329 54.09C40.3195 54.09 39.8529 53.9733 39.4329 53.74C39.0195 53.5067 38.6929 53.1767 38.4529 52.75C38.2195 52.3167 38.1029 51.8167 38.1029 51.25C38.1029 50.69 38.2229 50.1967 38.4629 49.77C38.7095 49.3367 39.0429 49.0067 39.4629 48.78C39.8829 48.5467 40.3529 48.43 40.8729 48.43C41.3929 48.43 41.8629 48.5467 42.2829 48.78C42.7029 49.0067 43.0329 49.3333 43.2729 49.76C43.5195 50.1867 43.6429 50.6833 43.6429 51.25C43.6429 51.8167 43.5162 52.3167 43.2629 52.75C43.0162 53.1767 42.6795 53.5067 42.2529 53.74C41.8262 53.9733 41.3529 54.09 40.8329 54.09ZM40.8329 53.29C41.1595 53.29 41.4662 53.2133 41.7529 53.06C42.0395 52.9067 42.2695 52.6767 42.4429 52.37C42.6229 52.0633 42.7129 51.69 42.7129 51.25C42.7129 50.81 42.6262 50.4367 42.4529 50.13C42.2795 49.8233 42.0529 49.5967 41.7729 49.45C41.4929 49.2967 41.1895 49.22 40.8629 49.22C40.5295 49.22 40.2229 49.2967 39.9429 49.45C39.6695 49.5967 39.4495 49.8233 39.2829 50.13C39.1162 50.4367 39.0329 50.81 39.0329 51.25C39.0329 51.6967 39.1129 52.0733 39.2729 52.38C39.4395 52.6867 39.6595 52.9167 39.9329 53.07C40.2062 53.2167 40.5062 53.29 40.8329 53.29ZM46.5293 54.09C46.1093 54.09 45.7327 54.02 45.3993 53.88C45.066 53.7333 44.8027 53.5333 44.6093 53.28C44.416 53.02 44.3093 52.7233 44.2893 52.39H45.2293C45.256 52.6633 45.3827 52.8867 45.6093 53.06C45.8427 53.2333 46.146 53.32 46.5193 53.32C46.866 53.32 47.1393 53.2433 47.3393 53.09C47.5393 52.9367 47.6393 52.7433 47.6393 52.51C47.6393 52.27 47.5327 52.0933 47.3193 51.98C47.106 51.86 46.776 51.7433 46.3293 51.63C45.9227 51.5233 45.5893 51.4167 45.3293 51.31C45.076 51.1967 44.856 51.0333 44.6693 50.82C44.4893 50.6 44.3993 50.3133 44.3993 49.96C44.3993 49.68 44.4827 49.4233 44.6493 49.19C44.816 48.9567 45.0527 48.7733 45.3593 48.64C45.666 48.5 46.016 48.43 46.4093 48.43C47.016 48.43 47.506 48.5833 47.8793 48.89C48.2527 49.1967 48.4527 49.6167 48.4793 50.15H47.5693C47.5493 49.8633 47.4327 49.6333 47.2193 49.46C47.0127 49.2867 46.7327 49.2 46.3793 49.2C46.0527 49.2 45.7927 49.27 45.5993 49.41C45.406 49.55 45.3093 49.7333 45.3093 49.96C45.3093 50.14 45.366 50.29 45.4793 50.41C45.5993 50.5233 45.746 50.6167 45.9193 50.69C46.0993 50.7567 46.346 50.8333 46.6593 50.92C47.0527 51.0267 47.3727 51.1333 47.6193 51.24C47.866 51.34 48.076 51.4933 48.2493 51.7C48.4293 51.9067 48.5227 52.1767 48.5293 52.51C48.5293 52.81 48.446 53.08 48.2793 53.32C48.1127 53.56 47.876 53.75 47.5693 53.89C47.2693 54.0233 46.9227 54.09 46.5293 54.09ZM50.6739 49.27V52.5C50.6739 52.7667 50.7306 52.9567 50.8439 53.07C50.9573 53.1767 51.1539 53.23 51.4339 53.23H52.1039V54H51.2839C50.7773 54 50.3973 53.8833 50.1439 53.65C49.8906 53.4167 49.7639 53.0333 49.7639 52.5V49.27H49.0539V48.52H49.7639V47.14H50.6739V48.52H52.1039V49.27H50.6739ZM55.0325 51.24C55.0325 50.68 55.1459 50.19 55.3725 49.77C55.5992 49.3433 55.9092 49.0133 56.3025 48.78C56.7025 48.5467 57.1459 48.43 57.6325 48.43C58.1125 48.43 58.5292 48.5333 58.8825 48.74C59.2359 48.9467 59.4992 49.2067 59.6725 49.52V48.52H60.5925V54H59.6725V52.98C59.4925 53.3 59.2225 53.5667 58.8625 53.78C58.5092 53.9867 58.0959 54.09 57.6225 54.09C57.1359 54.09 56.6959 53.97 56.3025 53.73C55.9092 53.49 55.5992 53.1533 55.3725 52.72C55.1459 52.2867 55.0325 51.7933 55.0325 51.24ZM59.6725 51.25C59.6725 50.8367 59.5892 50.4767 59.4225 50.17C59.2559 49.8633 59.0292 49.63 58.7425 49.47C58.4625 49.3033 58.1525 49.22 57.8125 49.22C57.4725 49.22 57.1625 49.3 56.8825 49.46C56.6025 49.62 56.3792 49.8533 56.2125 50.16C56.0459 50.4667 55.9625 50.8267 55.9625 51.24C55.9625 51.66 56.0459 52.0267 56.2125 52.34C56.3792 52.6467 56.6025 52.8833 56.8825 53.05C57.1625 53.21 57.4725 53.29 57.8125 53.29C58.1525 53.29 58.4625 53.21 58.7425 53.05C59.0292 52.8833 59.2559 52.6467 59.4225 52.34C59.5892 52.0267 59.6725 51.6633 59.6725 51.25ZM61.5404 51.24C61.5404 50.68 61.6537 50.19 61.8804 49.77C62.107 49.3433 62.417 49.0133 62.8104 48.78C63.2104 48.5467 63.657 48.43 64.1504 48.43C64.577 48.43 64.9737 48.53 65.3404 48.73C65.707 48.9233 65.987 49.18 66.1804 49.5V46.6H67.1004V54H66.1804V52.97C66.0004 53.2967 65.7337 53.5667 65.3804 53.78C65.027 53.9867 64.6137 54.09 64.1404 54.09C63.6537 54.09 63.2104 53.97 62.8104 53.73C62.417 53.49 62.107 53.1533 61.8804 52.72C61.6537 52.2867 61.5404 51.7933 61.5404 51.24ZM66.1804 51.25C66.1804 50.8367 66.097 50.4767 65.9304 50.17C65.7637 49.8633 65.537 49.63 65.2504 49.47C64.9704 49.3033 64.6604 49.22 64.3204 49.22C63.9804 49.22 63.6704 49.3 63.3904 49.46C63.1104 49.62 62.887 49.8533 62.7204 50.16C62.5537 50.4667 62.4704 50.8267 62.4704 51.24C62.4704 51.66 62.5537 52.0267 62.7204 52.34C62.887 52.6467 63.1104 52.8833 63.3904 53.05C63.6704 53.21 63.9804 53.29 64.3204 53.29C64.6604 53.29 64.9704 53.21 65.2504 53.05C65.537 52.8833 65.7637 52.6467 65.9304 52.34C66.097 52.0267 66.1804 51.6633 66.1804 51.25Z" fill="#717171"/>
<path d="M128.603 12.3166C128.891 11.7329 129.035 11.4411 129.231 11.3478C129.401 11.2667 129.599 11.2667 129.769 11.3478C129.965 11.4411 130.109 11.7329 130.397 12.3166L133.13 17.854C133.215 18.0264 133.258 18.1125 133.32 18.1794C133.375 18.2386 133.441 18.2866 133.514 18.3207C133.597 18.3592 133.692 18.3731 133.882 18.4009L139.996 19.2946C140.64 19.3887 140.962 19.4357 141.111 19.593C141.241 19.7298 141.302 19.9178 141.277 20.1047C141.249 20.3194 141.015 20.5464 140.549 21.0004L136.127 25.308C135.989 25.4422 135.92 25.5094 135.876 25.5893C135.836 25.66 135.811 25.7377 135.801 25.8181C135.79 25.9088 135.806 26.0037 135.839 26.1934L136.882 32.2776C136.992 32.9193 137.048 33.2402 136.944 33.4306C136.854 33.5962 136.694 33.7124 136.509 33.7468C136.296 33.7863 136.008 33.6347 135.431 33.3317L129.965 30.4572C129.795 30.3677 129.71 30.3229 129.62 30.3053C129.541 30.2897 129.459 30.2897 129.38 30.3053C129.29 30.3229 129.205 30.3677 129.035 30.4572L123.569 33.3317C122.992 33.6348 122.704 33.7863 122.491 33.7468C122.306 33.7124 122.146 33.5962 122.056 33.4306C121.952 33.2402 122.008 32.9193 122.118 32.2776L123.161 26.1934C123.194 26.0037 123.21 25.9088 123.199 25.8181C123.189 25.7377 123.164 25.66 123.124 25.5893C123.08 25.5094 123.011 25.4422 122.873 25.308L118.451 21.0004C117.985 20.5464 117.751 20.3194 117.723 20.1047C117.698 19.9178 117.759 19.7298 117.889 19.593C118.038 19.4357 118.36 19.3887 119.004 19.2946L125.118 18.4009C125.308 18.3731 125.403 18.3592 125.486 18.3207C125.559 18.2866 125.625 18.2386 125.68 18.1794C125.742 18.1125 125.785 18.0264 125.87 17.854L128.603 12.3166Z" stroke="#717171" stroke-width="1.5" stroke-linecap="round" stroke-linejoin="round"/>
<path d="M117.384 54.07C116.924 54.07 116.511 53.99 116.144 53.83C115.784 53.6633 115.501 53.4367 115.294 53.15C115.088 52.8567 114.981 52.52 114.974 52.14H115.944C115.978 52.4667 116.111 52.7433 116.344 52.97C116.584 53.19 116.931 53.3 117.384 53.3C117.818 53.3 118.158 53.1933 118.404 52.98C118.658 52.76 118.784 52.48 118.784 52.14C118.784 51.8733 118.711 51.6567 118.564 51.49C118.418 51.3233 118.234 51.1967 118.014 51.11C117.794 51.0233 117.498 50.93 117.124 50.83C116.664 50.71 116.294 50.59 116.014 50.47C115.741 50.35 115.504 50.1633 115.304 49.91C115.111 49.65 115.014 49.3033 115.014 48.87C115.014 48.49 115.111 48.1533 115.304 47.86C115.498 47.5667 115.768 47.34 116.114 47.18C116.468 47.02 116.871 46.94 117.324 46.94C117.978 46.94 118.511 47.1033 118.924 47.43C119.344 47.7567 119.581 48.19 119.634 48.73H118.634C118.601 48.4633 118.461 48.23 118.214 48.03C117.968 47.8233 117.641 47.72 117.234 47.72C116.854 47.72 116.544 47.82 116.304 48.02C116.064 48.2133 115.944 48.4867 115.944 48.84C115.944 49.0933 116.014 49.3 116.154 49.46C116.301 49.62 116.478 49.7433 116.684 49.83C116.898 49.91 117.194 50.0033 117.574 50.11C118.034 50.2367 118.404 50.3633 118.684 50.49C118.964 50.61 119.204 50.8 119.404 51.06C119.604 51.3133 119.704 51.66 119.704 52.1C119.704 52.44 119.614 52.76 119.434 53.06C119.254 53.36 118.988 53.6033 118.634 53.79C118.281 53.9767 117.864 54.07 117.384 54.07ZM120.453 51.24C120.453 50.68 120.567 50.19 120.793 49.77C121.02 49.3433 121.33 49.0133 121.723 48.78C122.123 48.5467 122.567 48.43 123.053 48.43C123.533 48.43 123.95 48.5333 124.303 48.74C124.657 48.9467 124.92 49.2067 125.093 49.52V48.52H126.013V54H125.093V52.98C124.913 53.3 124.643 53.5667 124.283 53.78C123.93 53.9867 123.517 54.09 123.043 54.09C122.557 54.09 122.117 53.97 121.723 53.73C121.33 53.49 121.02 53.1533 120.793 52.72C120.567 52.2867 120.453 51.7933 120.453 51.24ZM125.093 51.25C125.093 50.8367 125.01 50.4767 124.843 50.17C124.677 49.8633 124.45 49.63 124.163 49.47C123.883 49.3033 123.573 49.22 123.233 49.22C122.893 49.22 122.583 49.3 122.303 49.46C122.023 49.62 121.8 49.8533 121.633 50.16C121.467 50.4667 121.383 50.8267 121.383 51.24C121.383 51.66 121.467 52.0267 121.633 52.34C121.8 52.6467 122.023 52.8833 122.303 53.05C122.583 53.21 122.893 53.29 123.233 53.29C123.573 53.29 123.883 53.21 124.163 53.05C124.45 52.8833 124.677 52.6467 124.843 52.34C125.01 52.0267 125.093 51.6633 125.093 51.25ZM129.341 53.16L131.041 48.52H132.011L129.861 54H128.801L126.651 48.52H127.631L129.341 53.16ZM137.657 51.05C137.657 51.2233 137.647 51.4067 137.627 51.6H133.247C133.28 52.14 133.463 52.5633 133.797 52.87C134.137 53.17 134.547 53.32 135.027 53.32C135.42 53.32 135.747 53.23 136.007 53.05C136.273 52.8633 136.46 52.6167 136.567 52.31H137.547C137.4 52.8367 137.107 53.2667 136.667 53.6C136.227 53.9267 135.68 54.09 135.027 54.09C134.507 54.09 134.04 53.9733 133.627 53.74C133.22 53.5067 132.9 53.1767 132.667 52.75C132.433 52.3167 132.317 51.8167 132.317 51.25C132.317 50.6833 132.43 50.1867 132.657 49.76C132.883 49.3333 133.2 49.0067 133.607 48.78C134.02 48.5467 134.493 48.43 135.027 48.43C135.547 48.43 136.007 48.5433 136.407 48.77C136.807 48.9967 137.113 49.31 137.327 49.71C137.547 50.1033 137.657 50.55 137.657 51.05ZM136.717 50.86C136.717 50.5133 136.64 50.2167 136.487 49.97C136.333 49.7167 136.123 49.5267 135.857 49.4C135.597 49.2667 135.307 49.2 134.987 49.2C134.527 49.2 134.133 49.3467 133.807 49.64C133.487 49.9333 133.303 50.34 133.257 50.86H136.717ZM138.268 51.24C138.268 50.68 138.381 50.19 138.608 49.77C138.835 49.3433 139.145 49.0133 139.538 48.78C139.938 48.5467 140.385 48.43 140.878 48.43C141.305 48.43 141.701 48.53 142.068 48.73C142.435 48.9233 142.715 49.18 142.908 49.5V46.6H143.828V54H142.908V52.97C142.728 53.2967 142.461 53.5667 142.108 53.78C141.755 53.9867 141.341 54.09 140.868 54.09C140.381 54.09 139.938 53.97 139.538 53.73C139.145 53.49 138.835 53.1533 138.608 52.72C138.381 52.2867 138.268 51.7933 138.268 51.24ZM142.908 51.25C142.908 50.8367 142.825 50.4767 142.658 50.17C142.491 49.8633 142.265 49.63 141.978 49.47C141.698 49.3033 141.388 49.22 141.048 49.22C140.708 49.22 140.398 49.3 140.118 49.46C139.838 49.62 139.615 49.8533 139.448 50.16C139.281 50.4667 139.198 50.8267 139.198 51.24C139.198 51.66 139.281 52.0267 139.448 52.34C139.615 52.6467 139.838 52.8833 140.118 53.05C140.398 53.21 140.708 53.29 141.048 53.29C141.388 53.29 141.698 53.21 141.978 53.05C142.265 52.8833 142.491 52.6467 142.658 52.34C142.825 52.0267 142.908 51.6633 142.908 51.25Z" fill="#717171"/>
<path d="M225.25 34.25L220.875 29.875M224 22.375C224 28.243 219.243 33 213.375 33C207.507 33 202.75 28.243 202.75 22.375C202.75 16.507 207.507 11.75 213.375 11.75C219.243 11.75 224 16.507 224 22.375Z" stroke="#717171" stroke-width="1.5" stroke-linecap="round" stroke-linejoin="round"/>
<path d="M200.09 54.07C199.63 54.07 199.217 53.99 198.85 53.83C198.49 53.6633 198.207 53.4367 198 53.15C197.794 52.8567 197.687 52.52 197.68 52.14H198.65C198.684 52.4667 198.817 52.7433 199.05 52.97C199.29 53.19 199.637 53.3 200.09 53.3C200.524 53.3 200.864 53.1933 201.11 52.98C201.364 52.76 201.49 52.48 201.49 52.14C201.49 51.8733 201.417 51.6567 201.27 51.49C201.124 51.3233 200.94 51.1967 200.72 51.11C200.5 51.0233 200.204 50.93 199.83 50.83C199.37 50.71 199 50.59 198.72 50.47C198.447 50.35 198.21 50.1633 198.01 49.91C197.817 49.65 197.72 49.3033 197.72 48.87C197.72 48.49 197.817 48.1533 198.01 47.86C198.204 47.5667 198.474 47.34 198.82 47.18C199.174 47.02 199.577 46.94 200.03 46.94C200.684 46.94 201.217 47.1033 201.63 47.43C202.05 47.7567 202.287 48.19 202.34 48.73H201.34C201.307 48.4633 201.167 48.23 200.92 48.03C200.674 47.8233 200.347 47.72 199.94 47.72C199.56 47.72 199.25 47.82 199.01 48.02C198.77 48.2133 198.65 48.4867 198.65 48.84C198.65 49.0933 198.72 49.3 198.86 49.46C199.007 49.62 199.184 49.7433 199.39 49.83C199.604 49.91 199.9 50.0033 200.28 50.11C200.74 50.2367 201.11 50.3633 201.39 50.49C201.67 50.61 201.91 50.8 202.11 51.06C202.31 51.3133 202.41 51.66 202.41 52.1C202.41 52.44 202.32 52.76 202.14 53.06C201.96 53.36 201.694 53.6033 201.34 53.79C200.987 53.9767 200.57 54.07 200.09 54.07ZM208.499 51.05C208.499 51.2233 208.489 51.4067 208.469 51.6H204.089C204.123 52.14 204.306 52.5633 204.639 52.87C204.979 53.17 205.389 53.32 205.869 53.32C206.263 53.32 206.589 53.23 206.849 53.05C207.116 52.8633 207.303 52.6167 207.409 52.31H208.389C208.243 52.8367 207.949 53.2667 207.509 53.6C207.069 53.9267 206.523 54.09 205.869 54.09C205.349 54.09 204.883 53.9733 204.469 53.74C204.063 53.5067 203.743 53.1767 203.509 52.75C203.276 52.3167 203.159 51.8167 203.159 51.25C203.159 50.6833 203.273 50.1867 203.499 49.76C203.726 49.3333 204.043 49.0067 204.449 48.78C204.863 48.5467 205.336 48.43 205.869 48.43C206.389 48.43 206.849 48.5433 207.249 48.77C207.649 48.9967 207.956 49.31 208.169 49.71C208.389 50.1033 208.499 50.55 208.499 51.05ZM207.559 50.86C207.559 50.5133 207.483 50.2167 207.329 49.97C207.176 49.7167 206.966 49.5267 206.699 49.4C206.439 49.2667 206.149 49.2 205.829 49.2C205.369 49.2 204.976 49.3467 204.649 49.64C204.329 49.9333 204.146 50.34 204.099 50.86H207.559ZM209.111 51.24C209.111 50.68 209.224 50.19 209.451 49.77C209.677 49.3433 209.987 49.0133 210.381 48.78C210.781 48.5467 211.224 48.43 211.711 48.43C212.191 48.43 212.607 48.5333 212.961 48.74C213.314 48.9467 213.577 49.2067 213.751 49.52V48.52H214.671V54H213.751V52.98C213.571 53.3 213.301 53.5667 212.941 53.78C212.587 53.9867 212.174 54.09 211.701 54.09C211.214 54.09 210.774 53.97 210.381 53.73C209.987 53.49 209.677 53.1533 209.451 52.72C209.224 52.2867 209.111 51.7933 209.111 51.24ZM213.751 51.25C213.751 50.8367 213.667 50.4767 213.501 50.17C213.334 49.8633 213.107 49.63 212.821 49.47C212.541 49.3033 212.231 49.22 211.891 49.22C211.551 49.22 211.241 49.3 210.961 49.46C210.681 49.62 210.457 49.8533 210.291 50.16C210.124 50.4667 210.041 50.8267 210.041 51.24C210.041 51.66 210.124 52.0267 210.291 52.34C210.457 52.6467 210.681 52.8833 210.961 53.05C211.241 53.21 211.551 53.29 211.891 53.29C212.231 53.29 212.541 53.21 212.821 53.05C213.107 52.8833 213.334 52.6467 213.501 52.34C213.667 52.0267 213.751 51.6633 213.751 51.25ZM216.868 49.41C217.028 49.0967 217.255 48.8533 217.548 48.68C217.848 48.5067 218.212 48.42 218.638 48.42V49.36H218.398C217.378 49.36 216.868 49.9133 216.868 51.02V54H215.958V48.52H216.868V49.41ZM219.099 51.25C219.099 50.6833 219.212 50.19 219.439 49.77C219.666 49.3433 219.979 49.0133 220.379 48.78C220.786 48.5467 221.249 48.43 221.769 48.43C222.442 48.43 222.996 48.5933 223.429 48.92C223.869 49.2467 224.159 49.7 224.299 50.28H223.319C223.226 49.9467 223.042 49.6833 222.769 49.49C222.502 49.2967 222.169 49.2 221.769 49.2C221.249 49.2 220.829 49.38 220.509 49.74C220.189 50.0933 220.029 50.5967 220.029 51.25C220.029 51.91 220.189 52.42 220.509 52.78C220.829 53.14 221.249 53.32 221.769 53.32C222.169 53.32 222.502 53.2267 222.769 53.04C223.036 52.8533 223.219 52.5867 223.319 52.24H224.299C224.152 52.8 223.859 53.25 223.419 53.59C222.979 53.9233 222.429 54.09 221.769 54.09C221.249 54.09 220.786 53.9733 220.379 53.74C219.979 53.5067 219.666 53.1767 219.439 52.75C219.212 52.3233 219.099 51.8233 219.099 51.25ZM227.983 48.42C228.396 48.42 228.77 48.51 229.103 48.69C229.436 48.8633 229.696 49.1267 229.883 49.48C230.076 49.8333 230.173 50.2633 230.173 50.77V54H229.273V50.9C229.273 50.3533 229.136 49.9367 228.863 49.65C228.59 49.3567 228.216 49.21 227.743 49.21C227.263 49.21 226.88 49.36 226.593 49.66C226.313 49.96 226.173 50.3967 226.173 50.97V54H225.263V46.6H226.173V49.3C226.353 49.02 226.6 48.8033 226.913 48.65C227.233 48.4967 227.59 48.42 227.983 48.42Z" fill="#717171"/>
<path d="M286.75 17.75C286.75 15.6498 286.75 14.5997 287.159 13.7975C287.518 13.0919 288.092 12.5183 288.798 12.1587C289.6 11.75 290.65 11.75 292.75 11.75H303.25C305.35 11.75 306.4 11.75 307.202 12.1587C307.908 12.5183 308.482 13.0919 308.841 13.7975C309.25 14.5997 309.25 15.6498 309.25 17.75V24.875C309.25 26.6223 309.25 27.4959 308.965 28.1851C308.584 29.1039 307.854 29.8339 306.935 30.2145C306.246 30.5 305.372 30.5 303.625 30.5C303.014 30.5 302.709 30.5 302.426 30.5669C302.048 30.656 301.696 30.8319 301.398 31.0806C301.175 31.2671 300.991 31.5114 300.625 32L298.8 34.4333C298.529 34.7952 298.393 34.9761 298.227 35.0408C298.081 35.0975 297.919 35.0975 297.773 35.0408C297.607 34.9761 297.471 34.7952 297.2 34.4333L295.375 32C295.009 31.5114 294.825 31.2671 294.602 31.0806C294.304 30.8319 293.952 30.656 293.574 30.5669C293.291 30.5 292.986 30.5 292.375 30.5C290.628 30.5 289.754 30.5 289.065 30.2145C288.146 29.8339 287.416 29.1039 287.035 28.1851C286.75 27.4959 286.75 26.6223 286.75 24.875V17.75Z" stroke="#717171" stroke-width="1.5" stroke-linecap="round" stroke-linejoin="round"/>
<path d="M286.782 47.03V54H285.872V47.03H286.782ZM290.753 48.42C291.419 48.42 291.959 48.6233 292.373 49.03C292.786 49.43 292.993 50.01 292.993 50.77V54H292.093V50.9C292.093 50.3533 291.956 49.9367 291.683 49.65C291.409 49.3567 291.036 49.21 290.563 49.21C290.083 49.21 289.699 49.36 289.413 49.66C289.133 49.96 288.993 50.3967 288.993 50.97V54H288.083V48.52H288.993V49.3C289.173 49.02 289.416 48.8033 289.723 48.65C290.036 48.4967 290.379 48.42 290.753 48.42ZM295.139 49.54C295.326 49.2133 295.599 48.9467 295.959 48.74C296.319 48.5333 296.729 48.43 297.189 48.43C297.682 48.43 298.126 48.5467 298.519 48.78C298.912 49.0133 299.222 49.3433 299.449 49.77C299.676 50.19 299.789 50.68 299.789 51.24C299.789 51.7933 299.676 52.2867 299.449 52.72C299.222 53.1533 298.909 53.49 298.509 53.73C298.116 53.97 297.676 54.09 297.189 54.09C296.716 54.09 296.299 53.9867 295.939 53.78C295.586 53.5733 295.319 53.31 295.139 52.99V54H294.229V46.6H295.139V49.54ZM298.859 51.24C298.859 50.8267 298.776 50.4667 298.609 50.16C298.442 49.8533 298.216 49.62 297.929 49.46C297.649 49.3 297.339 49.22 296.999 49.22C296.666 49.22 296.356 49.3033 296.069 49.47C295.789 49.63 295.562 49.8667 295.389 50.18C295.222 50.4867 295.139 50.8433 295.139 51.25C295.139 51.6633 295.222 52.0267 295.389 52.34C295.562 52.6467 295.789 52.8833 296.069 53.05C296.356 53.21 296.666 53.29 296.999 53.29C297.339 53.29 297.649 53.21 297.929 53.05C298.216 52.8833 298.442 52.6467 298.609 52.34C298.776 52.0267 298.859 51.66 298.859 51.24ZM303.127 54.09C302.613 54.09 302.147 53.9733 301.727 53.74C301.313 53.5067 300.987 53.1767 300.747 52.75C300.513 52.3167 300.397 51.8167 300.397 51.25C300.397 50.69 300.517 50.1967 300.757 49.77C301.003 49.3367 301.337 49.0067 301.757 48.78C302.177 48.5467 302.647 48.43 303.167 48.43C303.687 48.43 304.157 48.5467 304.577 48.78C304.997 49.0067 305.327 49.3333 305.567 49.76C305.813 50.1867 305.937 50.6833 305.937 51.25C305.937 51.8167 305.81 52.3167 305.557 52.75C305.31 53.1767 304.973 53.5067 304.547 53.74C304.12 53.9733 303.647 54.09 303.127 54.09ZM303.127 53.29C303.453 53.29 303.76 53.2133 304.047 53.06C304.333 52.9067 304.563 52.6767 304.737 52.37C304.917 52.0633 305.007 51.69 305.007 51.25C305.007 50.81 304.92 50.4367 304.747 50.13C304.573 49.8233 304.347 49.5967 304.067 49.45C303.787 49.2967 303.483 49.22 303.157 49.22C302.823 49.22 302.517 49.2967 302.237 49.45C301.963 49.5967 301.743 49.8233 301.577 50.13C301.41 50.4367 301.327 50.81 301.327 51.25C301.327 51.6967 301.407 52.0733 301.567 52.38C301.733 52.6867 301.953 52.9167 302.227 53.07C302.5 53.2167 302.8 53.29 303.127 53.29ZM309.743 54L308.443 51.96L307.193 54H306.243L308.013 51.28L306.243 48.52H307.273L308.573 50.55L309.813 48.52H310.763L309.003 51.23L310.773 54H309.743Z" fill="#717171"/>
<path d="M368.75 33C371.67 29.9032 375.634 28 380 28C384.366 28 388.33 29.9032 391.25 33M385.625 17.375C385.625 20.4816 383.107 23 380 23C376.893 23 374.375 20.4816 374.375 17.375C374.375 14.2684 376.893 11.75 380 11.75C383.107 11.75 385.625 14.2684 385.625 17.375Z" stroke="#717171" stroke-width="1.5" stroke-linecap="round" stroke-linejoin="round"/>
<path d="M369.016 53.26H371.456V54H368.106V47.03H369.016V53.26ZM374.562 54.09C374.049 54.09 373.582 53.9733 373.162 53.74C372.749 53.5067 372.422 53.1767 372.182 52.75C371.949 52.3167 371.832 51.8167 371.832 51.25C371.832 50.69 371.952 50.1967 372.192 49.77C372.439 49.3367 372.772 49.0067 373.192 48.78C373.612 48.5467 374.082 48.43 374.602 48.43C375.122 48.43 375.592 48.5467 376.012 48.78C376.432 49.0067 376.762 49.3333 377.002 49.76C377.249 50.1867 377.372 50.6833 377.372 51.25C377.372 51.8167 377.246 52.3167 376.992 52.75C376.746 53.1767 376.409 53.5067 375.982 53.74C375.556 53.9733 375.082 54.09 374.562 54.09ZM374.562 53.29C374.889 53.29 375.196 53.2133 375.482 53.06C375.769 52.9067 375.999 52.6767 376.172 52.37C376.352 52.0633 376.442 51.69 376.442 51.25C376.442 50.81 376.356 50.4367 376.182 50.13C376.009 49.8233 375.782 49.5967 375.502 49.45C375.222 49.2967 374.919 49.22 374.592 49.22C374.259 49.22 373.952 49.2967 373.672 49.45C373.399 49.5967 373.179 49.8233 373.012 50.13C372.846 50.4367 372.762 50.81 372.762 51.25C372.762 51.6967 372.842 52.0733 373.002 52.38C373.169 52.6867 373.389 52.9167 373.662 53.07C373.936 53.2167 374.236 53.29 374.562 53.29ZM380.579 48.43C381.052 48.43 381.465 48.5333 381.819 48.74C382.179 48.9467 382.445 49.2067 382.619 49.52V48.52H383.539V54.12C383.539 54.62 383.432 55.0633 383.219 55.45C383.005 55.8433 382.699 56.15 382.299 56.37C381.905 56.59 381.445 56.7 380.919 56.7C380.199 56.7 379.599 56.53 379.119 56.19C378.639 55.85 378.355 55.3867 378.269 54.8H379.169C379.269 55.1333 379.475 55.4 379.789 55.6C380.102 55.8067 380.479 55.91 380.919 55.91C381.419 55.91 381.825 55.7533 382.139 55.44C382.459 55.1267 382.619 54.6867 382.619 54.12V52.97C382.439 53.29 382.172 53.5567 381.819 53.77C381.465 53.9833 381.052 54.09 380.579 54.09C380.092 54.09 379.649 53.97 379.249 53.73C378.855 53.49 378.545 53.1533 378.319 52.72C378.092 52.2867 377.979 51.7933 377.979 51.24C377.979 50.68 378.092 50.19 378.319 49.77C378.545 49.3433 378.855 49.0133 379.249 48.78C379.649 48.5467 380.092 48.43 380.579 48.43ZM382.619 51.25C382.619 50.8367 382.535 50.4767 382.369 50.17C382.202 49.8633 381.975 49.63 381.689 49.47C381.409 49.3033 381.099 49.22 380.759 49.22C380.419 49.22 380.109 49.3 379.829 49.46C379.549 49.62 379.325 49.8533 379.159 50.16C378.992 50.4667 378.909 50.8267 378.909 51.24C378.909 51.66 378.992 52.0267 379.159 52.34C379.325 52.6467 379.549 52.8833 379.829 53.05C380.109 53.21 380.419 53.29 380.759 53.29C381.099 53.29 381.409 53.21 381.689 53.05C381.975 52.8833 382.202 52.6467 382.369 52.34C382.535 52.0267 382.619 51.6633 382.619 51.25ZM385.297 47.63C385.123 47.63 384.977 47.57 384.857 47.45C384.737 47.33 384.677 47.1833 384.677 47.01C384.677 46.8367 384.737 46.69 384.857 46.57C384.977 46.45 385.123 46.39 385.297 46.39C385.463 46.39 385.603 46.45 385.717 46.57C385.837 46.69 385.897 46.8367 385.897 47.01C385.897 47.1833 385.837 47.33 385.717 47.45C385.603 47.57 385.463 47.63 385.297 47.63ZM385.737 48.52V54H384.827V48.52H385.737ZM389.708 48.42C390.374 48.42 390.914 48.6233 391.328 49.03C391.741 49.43 391.948 50.01 391.948 50.77V54H391.048V50.9C391.048 50.3533 390.911 49.9367 390.638 49.65C390.364 49.3567 389.991 49.21 389.518 49.21C389.038 49.21 388.654 49.36 388.368 49.66C388.088 49.96 387.948 50.3967 387.948 50.97V54H387.038V48.52H387.948V49.3C388.128 49.02 388.371 48.8033 388.678 48.65C388.991 48.4967 389.334 48.42 389.708 48.42Z" fill="#717171"/>
</svg>
